<svg xmlns="http://www.w3.org/2000/svg" viewBox="0 0 1080 1080">
  <g transform="matrix(45 0 0 45 540 540)">
    <path 
      style="fill: currentColor;"
      transform="translate(-12, -12)"
      d="M 5.64 17 L 4.93 17.71 C 4.542276405289201 18.100037454310925 4.542276405289201 18.729962545689077 4.93 19.12 C 5.320037454310923 19.5077235947108 5.949962545689077 19.5077235947108 6.34 19.12 L 7.05 18.41 C 7.389776795928703 18.0132397225443 7.366932269681032 17.421805828454293 6.99756322061337 17.052436779386632 C 6.628194171545706 16.683067730318967 6.0367602774557 16.660223204071297 5.64 17 Z M 5 12 C 5 11.447715250169207 4.552284749830793 11 4 11 L 3 11 C 2.4477152501692068 11 2 11.447715250169207 2 12 C 2 12.552284749830793 2.4477152501692068 13 3 13 L 4 13 C 4.552284749830793 13 5 12.552284749830793 5 12 Z M 12 5 C 12.552284749830793 5 13 4.552284749830793 13 4 L 13 3 C 13 2.4477152501692068 12.552284749830793 2 12 2 C 11.447715250169207 2 11 2.4477152501692063 11 3 L 11 4 C 11 4.552284749830793 11.447715250169207 5 12 5 Z M 5.64 7.05 C 5.826260638525449 7.234744163617899 6.077660122615663 7.338895378455274 6.34 7.34 C 6.605802984650029 7.341536758799639 6.861281169195306 7.237186514407905 7.05 7.05 C 7.437723594710799 6.659962545689076 7.437723594710799 6.030037454310922 7.05 5.639999999999999 L 6.34 4.93 C 5.943239722544299 4.590223204071298 5.351805828454293 4.613067730318967 4.98243677938663 4.98243677938663 C 4.613067730318967 5.351805828454293 4.590223204071297 5.9432397225443 4.93 6.34 Z M 17.64 7.34 C 17.902339877384335 7.338895378455273 18.15373936147455 7.234744163617899 18.34 7.05 L 19.05 6.34 C 19.335376159720347 6.095610118517865 19.45968194426578 5.71188160493643 19.3718101349847 5.34658102754672 C 19.28393832570362 4.98128045015701 18.99871954984299 4.696061674296381 18.63341897245328 4.6081898650153015 C 18.26811839506357 4.520318055734222 17.884389881482136 4.644623840279651 17.64 4.93 L 17 5.64 C 16.6122764052892 6.030037454310923 16.6122764052892 6.659962545689076 17 7.05 C 17.176292949722743 7.22536187224024 17.411596119836236 7.32875265910829 17.66 7.34 Z M 21 11 L 20 11 C 19.447715250169207 11 19 11.447715250169207 19 12 C 19 12.552284749830793 19.447715250169207 13 20 13 L 21 13 C 21.552284749830793 13 22 12.552284749830793 22 12 C 22 11.447715250169207 21.552284749830793 11 21 11 Z M 12 19 C 11.447715250169207 19 11 19.447715250169207 11 20 L 11 21 C 11 21.552284749830793 11.447715250169207 22 12 22 C 12.552284749830793 22 13 21.552284749830793 13 21 L 13 20 C 13 19.447715250169207 12.552284749830793 19 12 19 Z M 18.36 17 C 17.969650845230213 16.7828763545096 17.48264463108831 16.8509561951319 17.166800413110106 17.166800413110106 C 16.8509561951319 17.482644631088313 16.782876354509604 17.969650845230213 17 18.36 L 17.71 19.07 C 18.100037454310925 19.4577235947108 18.729962545689077 19.4577235947108 19.12 19.07 C 19.5077235947108 18.679962545689076 19.5077235947108 18.050037454310925 19.12 17.66 Z M 12 6.5 C 8.962433875930635 6.5 6.5 8.962433875930635 6.5 12 C 6.5 15.037566124069365 8.962433875930635 17.5 12 17.5 C 15.037566124069365 17.5 17.5 15.037566124069365 17.5 12 C 17.494496299231624 8.96471650636828 15.035283493631717 6.505503700768373 11.999999999999996 6.500000000000002 Z M 12 15.5 C 10.067003375592222 15.5 8.5 13.932996624407778 8.5 12 C 8.5 10.067003375592222 10.067003375592222 8.5 12 8.5 C 13.932996624407778 8.5 15.5 10.067003375592222 15.5 12 C 15.5 13.932996624407778 13.932996624407778 15.5 12 15.5 Z"
    />
  </g>
</svg>